<svg width="24" height="24" viewBox="0 0 24 24" fill="none" xmlns="http://www.w3.org/2000/svg">
<rect width="24" height="24" fill="#1E1E1E"/>
<g id="Website View" clip-path="url(#clip0_60_9)">
<rect width="1920" height="5927" transform="translate(-240 -513)" fill="white"/>
<g id="Group 14">
<path id="Vector 1" d="M515.798 -383H-240V317H474.843L537.206 109.442H450.643L554.891 -200.878H452.504L515.798 -383Z" fill="url(#paint0_linear_60_9)" fill-opacity="0.5"/>
<path id="Vector 2" d="M616.689 -383H-240V317H570.267L640.954 109.442H496.716L661 -200.878H544.946L616.689 -383Z" fill="url(#paint1_linear_60_9)" fill-opacity="0.5"/>
</g>
<g id="Group 20">
<g id="Group 17">
<g id="Group 13">
<g id="Group 12">
<g id="Group 10">
<g id="Frame">
<path id="Vector" d="M3 16.5V18.75C3 19.3467 3.23705 19.919 3.65901 20.341C4.08097 20.7629 4.65326 21 5.25 21H18.75C19.3467 21 19.919 20.7629 20.341 20.341C20.7629 19.919 21 19.3467 21 18.75V16.5M16.5 12L12 16.5M12 16.5L7.5 12M12 16.5V3" stroke="url(#paint2_linear_60_9)" stroke-width="1.5" stroke-linecap="round" stroke-linejoin="round"/>
</g>
</g>
</g>
</g>
</g>
</g>
</g>
<defs>
<linearGradient id="paint0_linear_60_9" x1="509.282" y1="-374.352" x2="-295.495" y2="255.791" gradientUnits="userSpaceOnUse">
<stop stop-color="#8C57EE" stop-opacity="0.05"/>
<stop offset="1" stop-color="#F144AE" stop-opacity="0.05"/>
</linearGradient>
<linearGradient id="paint1_linear_60_9" x1="609.303" y1="-374.352" x2="-213.806" y2="356.179" gradientUnits="userSpaceOnUse">
<stop stop-color="#8C57EE" stop-opacity="0.05"/>
<stop offset="1" stop-color="#F144AE" stop-opacity="0.05"/>
</linearGradient>
<linearGradient id="paint2_linear_60_9" x1="5.36416" y1="11.9976" x2="18.8295" y2="11.9976" gradientUnits="userSpaceOnUse">
<stop stop-color="#FF42A5"/>
<stop offset="1" stop-color="#FF42A5"/>
</linearGradient>
<clipPath id="clip0_60_9">
<rect width="1920" height="5927" fill="white" transform="translate(-240 -513)"/>
</clipPath>
</defs>
</svg>
